<svg xmlns="http://www.w3.org/2000/svg" xml:space="preserve" width="315.32" height="133.67" viewBox="0 0 83.43 35.37"><g paint-order="stroke fill markers" transform="matrix(.26458 0 0 .26458 -6.56 .13)"><rect width="127.96" height="128" x="27.62" y="2.34" fill="#fff" stroke="#fff" stroke-width="5.67" paint-order="normal" rx="18.83"/><rect width="116.63" height="116.66" x="33.28" y="8" fill="#363d52" stroke="#212532" stroke-width="11.34" paint-order="normal" rx="13.17"/><path fill="#478cbf" d="m61.99 29.74 1.77 9.95a40.8 40.8 0 0 0-6.54 7.92l-.04-.09-19.21-11.66 5.76 15.71-15.85 3.1 13.51 9.1L29.37 75.8l21.61-2.58.08-.05A40.8 40.8 0 0 0 87.3 109.9l1.74-6.85h5.12l1.73 6.85a40.8 40.8 0 0 0 36.24-36.74l.08.05 21.62 2.58-12.03-12.03 13.51-9.1-15.85-3.1 5.77-15.71-19.21 11.66-.04.1a40.8 40.8 0 0 0-6.55-7.93l1.78-9.95-14.63-6.98-6.46 6.77.01.1a37.99 37.99 0 0 0-17.07 0l.01-.1-6.45-6.77z"/><path fill="#fff" d="M78.45 45.41a8.29 8.29 0 0 0-8.29 8.28 8.29 8.29 0 0 0 8.29 8.29 8.29 8.29 0 0 0 8.28-8.29 8.29 8.29 0 0 0-8.28-8.28zm26.3 0a8.29 8.29 0 0 0-8.29 8.28 8.29 8.29 0 0 0 8.29 8.29 8.29 8.29 0 0 0 8.28-8.29 8.29 8.29 0 0 0-8.28-8.28zM81.71 69.56l-1.6.2v21.73a34.13 26.57 0 0 0 9.56 1.54V78.94a10.79 13.64 0 0 1-7.96-9.38zm19.77 0a10.79 13.64 0 0 1-7.96 9.38v14.09a34.13 26.57 0 0 0 9.56-1.54V69.75Zm-25.21.65-8.87 1.06v13.87a34.13 26.57 0 0 0 8.87 5.04zm30.66 0v19.97a34.13 26.57 0 0 0 8.86-5.04V71.27Zm-43.38 1.52-5.18.61a34.13 26.57 0 0 0 5.18 9.18zm56.1 0v9.8a34.13 26.57 0 0 0 5.17-9.19z"/><path fill="#363d52" stroke="#fff" stroke-linecap="round" stroke-linejoin="round" d="M39.7 191.94h-1.65v-1.13h3v3.72q-.16.06-.42.13-.25.07-.57.12-.32.05-.65.08-.34.04-.67.04-1 0-1.74-.27-.73-.27-1.23-.75-.5-.49-.74-1.15-.24-.68-.24-1.49 0-.57.13-1.09.13-.52.38-.96.25-.45.6-.8.37-.37.82-.62.47-.25 1.01-.39.55-.13 1.18-.13.56 0 1.06.08t.82.2v1.14q-.43-.14-.87-.21-.44-.07-.88-.07-.6 0-1.13.18-.52.18-.9.53-.39.35-.6.86-.23.51-.23 1.18 0 1.31.69 1.97.67.65 1.92.65.23 0 .48-.03.25-.02.44-.06zm6.59.15q0-.42-.1-.75-.1-.32-.28-.54-.17-.22-.42-.33-.25-.11-.54-.11-.29 0-.54.1-.24.12-.42.34-.17.22-.27.54-.1.33-.1.75 0 .43.1.75.1.33.27.55.19.21.43.33.25.1.54.1.3 0 .53-.1.25-.12.42-.33.18-.22.28-.55.1-.32.1-.75zm1.35 0q0 .63-.19 1.15-.19.52-.54.89-.35.36-.84.57-.5.2-1.11.2-.63 0-1.13-.2-.5-.2-.84-.57-.35-.37-.54-.9-.18-.51-.18-1.14 0-.63.19-1.15.18-.51.53-.88.35-.37.85-.57.5-.2 1.1-.2.64 0 1.13.2.5.2.85.57.35.37.53.88.19.52.19 1.15zm3.45 1.77q.2 0 .37-.05.17-.05.33-.14.15-.08.27-.18.12-.1.2-.2v-2.53q-.23-.18-.52-.3-.28-.13-.6-.13-.2 0-.43.08-.22.08-.41.28-.18.2-.3.55-.13.36-.13.9 0 .8.3 1.26.32.45.92.46zm-2.57-1.66q0-.7.2-1.25.19-.55.52-.92t.76-.56q.43-.18.9-.18.21 0 .4.03.2.04.37.1l.32.16q.15.08.27.17h.01v-2.97h1.3V194.08l.03.68h-1.18l-.05-.57h-.03q-.11.14-.28.27-.16.13-.35.23-.2.1-.43.15-.24.06-.51.06-.44 0-.84-.16-.4-.15-.72-.47-.31-.33-.5-.84-.2-.53-.2-1.23zm10.31-.1q0-.43-.1-.76-.1-.32-.27-.54-.18-.22-.43-.33-.24-.11-.54-.11-.28 0-.53.1-.24.12-.42.34-.18.22-.28.54-.1.33-.1.75 0 .43.1.75.1.33.28.55.18.21.42.33.25.1.54.1.3 0 .54-.1.24-.12.42-.33.17-.22.27-.55.1-.32.1-.75zm1.35 0q0 .62-.18 1.14-.2.52-.54.89-.35.36-.85.57-.5.2-1.1.2-.63 0-1.14-.2-.5-.2-.84-.57-.35-.37-.53-.9-.19-.51-.19-1.14 0-.63.2-1.15.18-.51.53-.88.35-.37.85-.57.5-.2 1.1-.2.63 0 1.13.2.5.2.85.57.34.37.53.88.18.52.18 1.15zm4.42 2.65q-.22.07-.53.1-.3.05-.56.05-.68 0-1.1-.22-.43-.22-.6-.63-.13-.29-.13-.79v-2.77h-1v-1.07h1v-1.5h1.3v1.5h1.55v1.07h-1.55v2.6q0 .3.1.46.16.25.65.25.23 0 .45-.03.23-.04.42-.1zm2.23-4.59h.02q.11-.16.29-.32t.4-.28q.23-.13.5-.2t.58-.07q.3 0 .56.06.28.07.5.21.23.14.4.37.18.22.28.52.05.18.07.38.02.2.02.46v3.47h-1.3v-3.26q0-.22-.02-.37-.02-.16-.06-.27-.1-.26-.3-.37-.2-.1-.49-.1-.38 0-.73.17-.35.18-.62.52v3.68h-1.3v-5.34h1.07zm5.09-.74h1.3v5.34h-1.3zm-.03-2.64h1.37v1.41h-1.37Zm2.86 0h1.3v4.8h.03l2.03-2.16h1.62l-2.34 2.5 2.36 2.84h-1.59l-2.09-2.49h-.02v2.49h-1.3Z" aria-label="Godotnik" font-family="Corbel" font-size="11.29" font-weight="700" style="line-height:1.25;-inkscape-font-specification:&quot;Corbel Bold&quot;;white-space:pre" transform="matrix(3.77953 0 0 3.77953 36.82 -674.17)"/><path fill="#363d52" stroke="#fff" stroke-linecap="round" stroke-linejoin="round" d="M36.47 187.38v6.25h3.45v1.13h-4.8v-7.38zm7.7 6.81h-.03q-.1.12-.26.24t-.35.23q-.2.1-.45.17-.24.07-.52.07-.38 0-.71-.12-.33-.12-.57-.34-.24-.23-.37-.54-.14-.32-.14-.71 0-.43.16-.77.16-.35.44-.58.28-.24.67-.36.4-.13.87-.13.35 0 .64.05.29.04.51.1v-.21q0-.2-.07-.36-.06-.18-.2-.31-.14-.14-.36-.22-.23-.08-.56-.08-.4 0-.79.09-.4.09-.86.26v-1.02q.4-.17.86-.27.45-.09.94-.1.59 0 1.02.15.44.14.74.4.3.24.44.59.15.34.15.74v2.92l.03.68h-1.18zm-.11-1.7q-.19-.05-.43-.08-.24-.04-.5-.04-.47 0-.75.19t-.28.58q0 .18.06.32.07.13.17.22.11.09.26.13.14.05.3.05.2 0 .38-.05.17-.06.32-.14.15-.08.27-.18.12-.1.2-.2zm3.97-2.33h.03q.11-.16.29-.32.17-.16.4-.28.23-.13.5-.2t.58-.07q.3 0 .56.06.28.07.5.21.23.14.4.37.18.22.28.52.05.18.07.38.02.2.02.46v3.47h-1.3v-3.26q0-.22-.02-.37-.02-.16-.06-.27-.1-.26-.3-.37-.2-.1-.5-.1-.37 0-.72.17-.35.18-.62.52v3.68h-1.3v-5.34h1.07zm7.36 3.7q.2 0 .37-.05.17-.05.33-.14.15-.08.27-.18.12-.1.2-.2v-2.53q-.23-.18-.52-.3-.28-.13-.6-.13-.2 0-.43.08-.22.08-.41.28-.18.2-.31.55-.12.36-.12.9 0 .8.3 1.26.32.45.92.46zm-2.57-1.66q0-.7.2-1.25.18-.55.52-.92.33-.37.76-.56.43-.18.9-.18.2 0 .4.03.2.04.37.1l.32.16.27.17h.01v-2.97h1.3V194.08l.03.68h-1.18l-.05-.57h-.03q-.11.14-.28.27-.16.13-.36.23-.19.1-.43.15-.23.06-.5.06-.44 0-.84-.16-.4-.15-.72-.47-.31-.33-.5-.84-.2-.53-.2-1.23z" aria-label="Land" font-family="Corbel" font-size="11.29" font-weight="700" style="line-height:1.25;-inkscape-font-specification:&quot;Corbel Bold&quot;;white-space:pre" transform="matrix(3.77953 0 0 3.77953 119.38 -637.7)"/></g></svg>