<svg xmlns="http://www.w3.org/2000/svg" width="128" height="128" viewBox="0 0 35.36 35.37"><g paint-order="stroke fill markers" transform="matrix(.26458 0 0 .26458 -6.56 .13)"><rect width="127.96" height="128" x="27.62" y="2.34" fill="#fff" stroke="#fff" stroke-width="5.67" paint-order="normal" rx="18.83"/><rect width="116.63" height="116.66" x="33.28" y="8" fill="#363d52" stroke="#212532" stroke-width="11.34" paint-order="normal" rx="13.17"/><path fill="#478cbf" d="m61.99 29.74 1.77 9.95a40.8 40.8 0 0 0-6.54 7.92l-.04-.09-19.21-11.66 5.76 15.71-15.85 3.1 13.51 9.1L29.37 75.8l21.61-2.58.08-.05A40.8 40.8 0 0 0 87.3 109.9l1.74-6.85h5.12l1.73 6.85a40.8 40.8 0 0 0 36.24-36.74l.08.05 21.62 2.58-12.03-12.03 13.51-9.1-15.85-3.1 5.77-15.71-19.21 11.66-.04.1a40.8 40.8 0 0 0-6.55-7.93l1.78-9.95-14.63-6.98-6.46 6.77.01.1a37.99 37.99 0 0 0-17.07 0l.01-.1-6.45-6.77z"/><path fill="#fff" d="M78.45 45.41a8.29 8.29 0 0 0-8.29 8.28 8.29 8.29 0 0 0 8.29 8.29 8.29 8.29 0 0 0 8.28-8.29 8.29 8.29 0 0 0-8.28-8.28zm26.3 0a8.29 8.29 0 0 0-8.29 8.28 8.29 8.29 0 0 0 8.29 8.29 8.29 8.29 0 0 0 8.28-8.29 8.29 8.29 0 0 0-8.28-8.28zM81.71 69.56l-1.6.2v21.73a34.13 26.57 0 0 0 9.56 1.54V78.94a10.79 13.64 0 0 1-7.96-9.38zm19.77 0a10.79 13.64 0 0 1-7.96 9.38v14.09a34.13 26.57 0 0 0 9.56-1.54V69.75Zm-25.21.65-8.87 1.06v13.87a34.13 26.57 0 0 0 8.87 5.04zm30.66 0v19.97a34.13 26.57 0 0 0 8.86-5.04V71.27Zm-43.38 1.52-5.18.61a34.13 26.57 0 0 0 5.18 9.18zm56.1 0v9.8a34.13 26.57 0 0 0 5.17-9.19z"/></g></svg>